<?xml version="1.0" encoding="UTF-8"?>
<svg width="128pt" height="128pt" version="1.1" viewBox="0 0 128 128" xmlns="http://www.w3.org/2000/svg">
 <g fill="#d6e8c2">
  <path d="m32.266 85.395c-4.9414 7.3672-13.723 10.137-19.617 6.1836-5.8945-3.9492-6.668-13.125-1.7266-20.492 4.9375-7.3672 13.719-10.137 19.613-6.1836 5.8945 3.9531 6.668 13.129 1.7305 20.492"/>
  <path d="m55.258 100.81c-4.9375 7.3633-13.719 10.133-19.613 6.1797-5.8945-3.9492-6.668-13.125-1.7305-20.492 4.9375-7.3633 13.719-10.133 19.613-6.1797 5.8945 3.9531 6.668 13.125 1.7305 20.492"/>
  <path d="m27.629 116.16c-4.8203 7.2031-13.391 9.8945-19.141 6.0352-5.7539-3.8516-6.5078-12.809-1.6914-19.996 4.8203-7.1953 13.395-9.8945 19.145-6.0352 5.75 3.8555 6.5078 12.809 1.6875 19.996z"/>
  <path d="m59.105 68.852c-4.9414 7.3672-13.727 10.133-19.621 6.1797s-6.6641-13.133-1.7227-20.5c4.9414-7.3672 13.727-10.133 19.621-6.1797 5.8945 3.957 6.6641 13.133 1.7227 20.5"/>
  <path d="m84.336 85.766c-4.9414 7.3672-13.723 10.137-19.617 6.1836-5.8945-3.9492-6.668-13.129-1.7266-20.496 4.9375-7.3672 13.723-10.137 19.613-6.1836 5.8945 3.9531 6.668 13.129 1.7305 20.496"/>
  <path d="m33.934 51.969c-4.9414 7.3672-13.723 10.133-19.617 6.1797-5.8945-3.9531-6.668-13.129-1.7266-20.496 4.9414-7.3672 13.723-10.137 19.617-6.1797 5.8945 3.9531 6.668 13.129 1.7266 20.496"/>
  <path d="m63.223 37.582c-4.9375 7.3672-13.723 10.137-19.617 6.1836-5.8945-3.9492-6.668-13.129-1.7266-20.496 4.9414-7.3711 13.727-10.141 19.621-6.1875 5.8906 3.9531 6.6641 13.129 1.7227 20.5"/>
  <path d="m86.223 53c-4.9375 7.3672-13.723 10.137-19.617 6.1836s-6.668-13.129-1.7305-20.5c4.9414-7.3672 13.723-10.133 19.621-6.1836 5.8945 3.9531 6.668 13.133 1.7266 20.5"/>
  <path d="m58.082 25.707-0.003906 0.003907c0.19922-0.1875 20.477-18.27 52.242-9.9258l-0.43359-4.3203c-1.1133 0.54688-27.309 13.602-32.566 30.254l4.418 1.3945c4.668-14.785 29.938-27.367 30.191-27.492l5.5742-2.7461-6.0078-1.5781c-34.305-9-55.656 10.18-56.551 11z"/>
  <path d="m114.05 4.043c-0.078126 0.60156-1.7773 14.762 8.5 19.16l1.8242-4.2578c-7.0938-3.043-5.7422-14.199-5.7266-14.312z"/>
  <path d="m84.652 75.785c5.0312-15.098 20.715-55.484 32.664-60.977l-1.9375-4.207c-15.93 7.3242-33.203 57.969-35.117 63.719z"/>
 </g>
</svg>
