<?xml version="1.0" encoding="UTF-8"?>
<svg width="128pt" height="128pt" version="1.1" viewBox="0 0 128 128" xmlns="http://www.w3.org/2000/svg">
 <g fill="#d6e8c2">
  <path d="m44 24v14h9.1719l11.414-11.414c0.375-0.375 0.88281-0.58594 1.4141-0.58594h14c0.94922 0 1.7695 0.66797 1.9609 1.6016l3.6797 18.398h22.168c-0.95703-10.609-5.7344-20.508-13.441-27.855-7.7109-7.3516-17.824-11.652-28.469-12.105-10.641-0.45312-21.082 2.9727-29.387 9.6445l6.9023 6.9023c0.375 0.375 0.58594 0.88281 0.58594 1.4141z"/>
  <path d="m72.828 62-7.4141 7.4141c-0.375 0.375-0.88281 0.58594-1.4141 0.58594h-15.172l-5.3672 5.3672c8.1875 3.9805 15.242 9.9492 20.523 17.363 6.5195-9.2227 15.781-16.152 26.465-19.809l-1.6992-1.3594c-0.47266-0.37891-0.75-0.95312-0.75-1.5625v-8z"/>
  <path d="m32 38v10h16c0.53125 0 1.0391 0.21094 1.4141 0.58594s0.58594 0.88281 0.58594 1.4141v6c0 0.5625-0.23828 1.1016-0.65234 1.4805l-15.699 14.27h-0.003907c1.9922 0.52344 3.9492 1.1641 5.8672 1.9102l7.0742-7.0742c0.375-0.375 0.88281-0.58594 1.4141-0.58594h15.172l7.4141-7.4141c0.375-0.375 0.88281-0.58594 1.4141-0.58594h18c0.53125 0 1.0391 0.21094 1.4141 0.58594s0.58594 0.88281 0.58594 1.4141v9.0391l3.1406 2.5117c2.6016-0.62891 5.2461-1.0625 7.9102-1.3008 3.2461-6.2578 4.9414-13.203 4.9492-20.25h-24c-0.94922 0-1.7695-0.66797-1.9609-1.6016l-3.6797-18.398h-11.531l-11.414 11.414c-0.375 0.375-0.88281 0.58594-1.4141 0.58594h-12c-1.1055 0-2-0.89453-2-2v-15.172l-6.4961-6.5c-3.5156 3.3867-6.4492 7.3281-8.6758 11.672l6.5859 6.5859c0.375 0.375 0.58594 0.88281 0.58594 1.4141z"/>
  <path d="m28.82 70.73 17.18-15.613v-3.1172h-16c-1.1055 0-2-0.89453-2-2v-11.172l-4.9336-4.9336c-4.6641 11.812-3.9805 25.07 1.875 36.34 1.3047 0.12109 2.6016 0.28906 3.8789 0.49609z"/>
  <path d="m108 74c-16.758-0.035156-32.406 8.3633-41.637 22.352 3.5703 5.9531 5.9492 12.539 7.0078 19.402 2.9023-1.3633 5.7383-2.8438 8.4805-4.4727l-0.054687-0.33203v-0.003907c-1.2188-7.3086-0.40625-14.816 2.3438-21.699l3.7148 1.4883h0.003906c-2.3047 5.7734-3.0938 12.039-2.2969 18.203 2.8477-1.8516 5.5977-3.8477 8.2383-5.9805-1.2188-7.3125-0.41016-14.816 2.3438-21.699l3.7148 1.4883c-2.1641 5.4062-3.0039 11.254-2.4453 17.055 5.6172-5.0508 10.629-10.73 14.941-16.93l3.2891 2.2773c-10.52 15.184-24.969 27.223-41.801 34.832 0.046875 0.65625 0.089844 1.3164 0.11328 1.9805 12.562-0.50391 24.477-5.7188 33.367-14.605 8.8945-8.8867 14.121-20.793 14.637-33.355z"/>
  <path d="m20 74h-13.961c0.53125 12.898 6.0273 25.094 15.336 34.039 9.3086 8.9453 21.715 13.945 34.625 13.961h4.9062c-18.844-7.3711-35.055-20.211-46.551-36.863l3.2891-2.2773v0.003906c4.3047 6.2227 9.3164 11.934 14.93 17.008 0.57422-5.8203-0.25781-11.695-2.4336-17.129l3.7148-1.4883 0.003906 0.003906c2.75 6.8789 3.5586 14.387 2.3398 21.695v0.015625c2.6328 2.1602 5.3789 4.1797 8.2266 6.0508 0.8125-6.1875 0.027344-12.48-2.2852-18.277l3.7148-1.4883 0.003906 0.003906c2.75 6.8789 3.5586 14.387 2.3398 21.695l-0.0625 0.375c2.7305 1.6211 5.543 3.1094 8.4453 4.4648 0.55859-5.7969-0.27734-11.641-2.4414-17.051l3.7148-1.4883v0.003906c2.5586 6.4141 3.4336 13.379 2.543 20.23 1.3086 0.54688 2.6289 1.0742 3.9688 1.5664l5.5391 2.0391v0.003906c-0.75391-12.73-6.3398-24.695-15.613-33.445-9.2734-8.7539-21.539-13.637-34.293-13.652z"/>
 </g>
</svg>
