<?xml version="1.0" encoding="UTF-8"?>
<svg width="128pt" height="128pt" version="1.1" viewBox="0 0 128 128" xmlns="http://www.w3.org/2000/svg">
 <g fill="#d6e8c2">
  <path d="m72.789 76.16c5.5898 2.3945 9.6992 7.7031 11.281 14.566 2.0312 8.8203-0.28125 18.809-6.207 27.551 8.3203-2.1133 16.035-6.125 22.543-11.727-3.793-7.0859-3.8398-13.762-0.27734-23.254 1.7266-4.6016 1.8164-8.5 0.27344-11.594-1.8828-3.7734-5.7344-5.3516-6.7266-5.7031h-34.453c1.707 2.582 5.5039 6.707 13.566 10.16z"/>
  <path d="m62.086 62-10.727-14.824c-0.55859-0.73828-1.4336-1.1758-2.3594-1.1758s-1.8008 0.4375-2.3594 1.1758l-10.727 14.824z"/>
  <path d="m41.238 47.82-6.4453-8.5117h-0.003907c-0.6875-0.82812-1.7109-1.3086-2.7891-1.3086s-2.1016 0.48047-2.7891 1.3086l-17.188 22.691h18.953z"/>
  <path d="m76 47.234-2.8945-1.4453c-0.98047-0.5-1.3711-1.6953-0.87891-2.6758 0.48828-0.98438 1.6836-1.3867 2.668-0.90234l1.1055 0.55469v-2.7656c0-1.1055 0.89453-2 2-2s2 0.89453 2 2v9.2383c1.043 0.50781 2.1914 0.76953 3.3516 0.76172 1.1211 0.003906 2.2305-0.24219 3.25-0.71094-3.3828-3.9141-3.4766-9.6914-0.21875-13.711-0.80859-1.3555-1.2578-2.8945-1.3125-4.4727-0.49609-0.24219-0.86719-0.67969-1.0312-1.2031-0.70703-2.2969-3.1875-3.9023-6.0391-3.9023s-5.332 1.6055-6.0391 3.8984c-0.20313 0.66016-0.73047 1.168-1.3945 1.3438-2.2383 0.60156-3.7422 2.3086-3.7422 4.2422v0.003906c0.007812 0.94531 0.35938 1.8555 0.98828 2.5625 0.69141 0.80859 0.62891 2.0195-0.14844 2.7539-1.0391 0.93359-1.6406 2.2617-1.6641 3.6562 0 3.0547 2.9805 5.5391 6.6484 5.5391 1.1602 0.007812 2.3086-0.25391 3.3516-0.76172z"/>
  <path d="m97.117 50c1.7031 0.011719 3.3828-0.40234 4.8828-1.2031v-3.7266l-5.1094-3.4062c-0.44531-0.29297-0.75391-0.75-0.85938-1.2734-0.10547-0.51953 0-1.0625 0.29688-1.5078 0.29297-0.44141 0.75391-0.75 1.2773-0.85156 0.51953-0.10156 1.0625 0.007812 1.5039 0.30469l2.8906 1.9258v-4.2617c0-1.1055 0.89453-2 2-2s2 0.89453 2 2v4.2617l2.8906-1.9258c0.91797-0.60547 2.1523-0.35547 2.7656 0.55859 0.60938 0.91797 0.36719 2.1523-0.54688 2.7695l-5.1094 3.4062v3.7266c1.5 0.80078 3.1797 1.2148 4.8828 1.2031 5.0273 0 9.1172-3.4492 9.1172-7.6914-0.03125-1.957-0.87109-3.8086-2.3203-5.1211-0.77734-0.73047-0.83984-1.9414-0.14844-2.7539 0.89844-1.0117 1.3984-2.3125 1.4102-3.6641 0-2.75-2.1055-5.1641-5.2344-6.0078-0.66406-0.17969-1.1914-0.6875-1.3945-1.3438-0.98047-3.1914-4.4023-5.418-8.3125-5.418s-7.332 2.2266-8.3125 5.418c-0.20312 0.65625-0.73047 1.1641-1.3945 1.3438-3.1328 0.84375-5.2344 3.2578-5.2344 6.0078 0.011718 1.3516 0.51172 2.6523 1.4102 3.6641 0.69141 0.8125 0.62891 2.0234-0.14844 2.7539-1.4492 1.3125-2.2891 3.1641-2.3203 5.1211 0 4.2422 4.0898 7.6914 9.1172 7.6914z"/>
  <path d="m64 120c2.6719 0 5.3398-0.1875 7.9844-0.56641 7.1719-8.582 10.23-18.926 8.1836-27.809-1.293-5.6055-4.5586-9.8984-8.957-11.789-11.25-4.8203-15.266-11.012-16.578-13.836h-46.598c0.51953 14.496 6.6406 28.227 17.078 38.301 10.441 10.07 24.379 15.699 38.887 15.699z"/>
  <path d="m103.96 69.867c2.0859 4.1367 2.0547 9.125-0.085937 14.836-2.6211 6.9961-3.5352 12.531-0.41016 19.027 0.046874-0.042969 0.089843-0.085938 0.13672-0.13281 10.047-9.9883 15.902-23.438 16.367-37.598h-18.875c1.168 1.1211 2.1367 2.4258 2.8672 3.8672z"/>
  <path d="m12 22c0.70703 0 1.4062-0.1875 2.0156-0.54688 0.77734-0.46094 1.7656-0.34375 2.4141 0.28516 3.1016 3.0156 8.0391 3.0156 11.141 0 0.64844-0.62891 1.6367-0.74609 2.4141-0.28516 0.60938 0.35938 1.3086 0.54688 2.0156 0.54688 2.2109 0 4-1.7891 4-4s-1.7891-4-4-4c-0.17578 0-0.35547 0.011719-0.53125 0.035156-0.89453 0.125-1.7617-0.36328-2.1172-1.1914-1.2617-2.9375-4.1523-4.8438-7.3516-4.8438s-6.0898 1.9062-7.3516 4.8438c-0.35547 0.82812-1.2227 1.3164-2.1172 1.1914-0.17578-0.023437-0.35547-0.035156-0.53125-0.035156-2.2109 0-4 1.7891-4 4s1.7891 4 4 4z"/>
  <path d="m64 16c-1.1055 0-2-0.89453-2-2-0.027344-0.41016-0.14062-0.8125-0.32812-1.1797-0.22266-0.40625-0.59766-0.82031-1.6719-0.82031-1.1055 0-2-0.89453-2-2s0.89453-2 2-2c1.7539 0 3.0586 0.57031 4 1.4062 0.94141-0.83594 2.2461-1.4062 4-1.4062 1.1055 0 2 0.89453 2 2s-0.89453 2-2 2c-1.0742 0-1.4492 0.41406-1.6719 0.82031-0.19141 0.37109-0.30469 0.78125-0.32812 1.1992-0.011719 1.0977-0.90234 1.9805-2 1.9805z"/>
  <path d="m50 32c-1.1055 0-2-0.89453-2-2-0.027344-0.41016-0.14062-0.8125-0.32812-1.1797-0.22266-0.40625-0.59766-0.82031-1.6719-0.82031-1.1055 0-2-0.89453-2-2s0.89453-2 2-2c1.7539 0 3.0586 0.57031 4 1.4062 0.94141-0.83594 2.2461-1.4062 4-1.4062 1.1055 0 2 0.89453 2 2s-0.89453 2-2 2c-1.0742 0-1.4492 0.41406-1.6719 0.82031-0.19141 0.37109-0.30469 0.78125-0.32812 1.1992-0.011719 1.0977-0.90234 1.9805-2 1.9805z"/>
  <path d="m80 62v-8.4805c-0.69141-0.20312-1.3594-0.47266-2-0.80859-0.64062 0.33594-1.3086 0.60547-2 0.80859v8.4805z"/>
  <path d="m104 52.27c-0.64062 0.34766-1.3125 0.64844-2 0.89062v8.8398h4v-8.8398c-0.6875-0.24219-1.3594-0.54297-2-0.89062z"/>
 </g>
</svg>
